%TF.GenerationSoftware,KiCad,Pcbnew,7.0.6-0*%
%TF.CreationDate,2023-12-23T18:43:20-05:00*%
%TF.ProjectId,Cornhole Wiring,436f726e-686f-46c6-9520-576972696e67,rev?*%
%TF.SameCoordinates,Original*%
%TF.FileFunction,Drillmap*%
%TF.FilePolarity,Positive*%
%FSLAX45Y45*%
G04 Gerber Fmt 4.5, Leading zero omitted, Abs format (unit mm)*
G04 Created by KiCad (PCBNEW 7.0.6-0) date 2023-12-23 18:43:20*
%MOMM*%
%LPD*%
G01*
G04 APERTURE LIST*
%ADD10C,0.100000*%
%ADD11C,0.200000*%
%ADD12C,0.150000*%
%ADD13C,0.180000*%
G04 APERTURE END LIST*
D10*
X11226000Y-5334000D02*
G75*
G03*
X11226000Y-5334000I-50000J0D01*
G01*
X10972000Y-5588000D02*
G75*
G03*
X10972000Y-5588000I-50000J0D01*
G01*
X11988000Y-6604000D02*
G75*
G03*
X11988000Y-6604000I-50000J0D01*
G01*
X11480000Y-6604000D02*
G75*
G03*
X11480000Y-6604000I-50000J0D01*
G01*
X11480000Y-11684000D02*
G75*
G03*
X11480000Y-11684000I-50000J0D01*
G01*
X11988000Y-11176000D02*
G75*
G03*
X11988000Y-11176000I-50000J0D01*
G01*
X11480000Y-11176000D02*
G75*
G03*
X11480000Y-11176000I-50000J0D01*
G01*
X11988000Y-11684000D02*
G75*
G03*
X11988000Y-11684000I-50000J0D01*
G01*
X6814000Y-11938000D02*
G75*
G03*
X6814000Y-11938000I-210000J0D01*
G01*
X6814000Y-5080000D02*
G75*
G03*
X6814000Y-5080000I-210000J0D01*
G01*
X11894000Y-5080000D02*
G75*
G03*
X11894000Y-5080000I-210000J0D01*
G01*
X6604000Y-12446000D02*
X11684000Y-12446000D01*
X6096000Y-5080000D02*
X6096000Y-11938000D01*
X11684000Y-4572000D02*
X6604000Y-4572000D01*
X12192000Y-11938000D02*
X12192000Y-5080000D01*
X11684000Y-12446000D02*
G75*
G03*
X12192000Y-11938000I0J508000D01*
G01*
X6096000Y-11938000D02*
G75*
G03*
X6604000Y-12446000I508000J0D01*
G01*
X6604000Y-4572000D02*
G75*
G03*
X6096000Y-5080000I0J-508000D01*
G01*
X12192000Y-5080000D02*
G75*
G03*
X11684000Y-4572000I-508000J0D01*
G01*
D11*
D12*
X8699500Y-6337000D02*
X8849500Y-6487000D01*
X8849500Y-6337000D02*
X8699500Y-6487000D01*
X9184500Y-6337000D02*
X9334500Y-6487000D01*
X9334500Y-6337000D02*
X9184500Y-6487000D01*
D13*
X8834500Y-6109000D02*
G75*
G03*
X8834500Y-6109000I-90000J0D01*
G01*
X9379500Y-6109000D02*
G75*
G03*
X9379500Y-6109000I-90000J0D01*
G01*
D11*
X6351777Y-12762484D02*
X6351777Y-12562484D01*
X6351777Y-12562484D02*
X6399396Y-12562484D01*
X6399396Y-12562484D02*
X6427967Y-12572008D01*
X6427967Y-12572008D02*
X6447015Y-12591055D01*
X6447015Y-12591055D02*
X6456539Y-12610103D01*
X6456539Y-12610103D02*
X6466062Y-12648198D01*
X6466062Y-12648198D02*
X6466062Y-12676769D01*
X6466062Y-12676769D02*
X6456539Y-12714865D01*
X6456539Y-12714865D02*
X6447015Y-12733912D01*
X6447015Y-12733912D02*
X6427967Y-12752960D01*
X6427967Y-12752960D02*
X6399396Y-12762484D01*
X6399396Y-12762484D02*
X6351777Y-12762484D01*
X6551777Y-12762484D02*
X6551777Y-12629150D01*
X6551777Y-12667246D02*
X6561301Y-12648198D01*
X6561301Y-12648198D02*
X6570824Y-12638674D01*
X6570824Y-12638674D02*
X6589872Y-12629150D01*
X6589872Y-12629150D02*
X6608920Y-12629150D01*
X6675586Y-12762484D02*
X6675586Y-12629150D01*
X6675586Y-12562484D02*
X6666062Y-12572008D01*
X6666062Y-12572008D02*
X6675586Y-12581531D01*
X6675586Y-12581531D02*
X6685110Y-12572008D01*
X6685110Y-12572008D02*
X6675586Y-12562484D01*
X6675586Y-12562484D02*
X6675586Y-12581531D01*
X6799396Y-12762484D02*
X6780348Y-12752960D01*
X6780348Y-12752960D02*
X6770824Y-12733912D01*
X6770824Y-12733912D02*
X6770824Y-12562484D01*
X6904158Y-12762484D02*
X6885110Y-12752960D01*
X6885110Y-12752960D02*
X6875586Y-12733912D01*
X6875586Y-12733912D02*
X6875586Y-12562484D01*
X7132729Y-12762484D02*
X7132729Y-12562484D01*
X7132729Y-12562484D02*
X7199396Y-12705341D01*
X7199396Y-12705341D02*
X7266062Y-12562484D01*
X7266062Y-12562484D02*
X7266062Y-12762484D01*
X7447015Y-12762484D02*
X7447015Y-12657722D01*
X7447015Y-12657722D02*
X7437491Y-12638674D01*
X7437491Y-12638674D02*
X7418443Y-12629150D01*
X7418443Y-12629150D02*
X7380348Y-12629150D01*
X7380348Y-12629150D02*
X7361301Y-12638674D01*
X7447015Y-12752960D02*
X7427967Y-12762484D01*
X7427967Y-12762484D02*
X7380348Y-12762484D01*
X7380348Y-12762484D02*
X7361301Y-12752960D01*
X7361301Y-12752960D02*
X7351777Y-12733912D01*
X7351777Y-12733912D02*
X7351777Y-12714865D01*
X7351777Y-12714865D02*
X7361301Y-12695817D01*
X7361301Y-12695817D02*
X7380348Y-12686293D01*
X7380348Y-12686293D02*
X7427967Y-12686293D01*
X7427967Y-12686293D02*
X7447015Y-12676769D01*
X7542253Y-12629150D02*
X7542253Y-12829150D01*
X7542253Y-12638674D02*
X7561301Y-12629150D01*
X7561301Y-12629150D02*
X7599396Y-12629150D01*
X7599396Y-12629150D02*
X7618443Y-12638674D01*
X7618443Y-12638674D02*
X7627967Y-12648198D01*
X7627967Y-12648198D02*
X7637491Y-12667246D01*
X7637491Y-12667246D02*
X7637491Y-12724388D01*
X7637491Y-12724388D02*
X7627967Y-12743436D01*
X7627967Y-12743436D02*
X7618443Y-12752960D01*
X7618443Y-12752960D02*
X7599396Y-12762484D01*
X7599396Y-12762484D02*
X7561301Y-12762484D01*
X7561301Y-12762484D02*
X7542253Y-12752960D01*
X7723205Y-12743436D02*
X7732729Y-12752960D01*
X7732729Y-12752960D02*
X7723205Y-12762484D01*
X7723205Y-12762484D02*
X7713682Y-12752960D01*
X7713682Y-12752960D02*
X7723205Y-12743436D01*
X7723205Y-12743436D02*
X7723205Y-12762484D01*
X7723205Y-12638674D02*
X7732729Y-12648198D01*
X7732729Y-12648198D02*
X7723205Y-12657722D01*
X7723205Y-12657722D02*
X7713682Y-12648198D01*
X7713682Y-12648198D02*
X7723205Y-12638674D01*
X7723205Y-12638674D02*
X7723205Y-12657722D01*
D12*
X5941000Y-13016000D02*
X6091000Y-13166000D01*
X6091000Y-13016000D02*
X5941000Y-13166000D01*
D11*
X6456539Y-13182484D02*
X6342253Y-13182484D01*
X6399396Y-13182484D02*
X6399396Y-12982484D01*
X6399396Y-12982484D02*
X6380348Y-13011055D01*
X6380348Y-13011055D02*
X6361301Y-13030103D01*
X6361301Y-13030103D02*
X6342253Y-13039627D01*
X6542253Y-13163436D02*
X6551777Y-13172960D01*
X6551777Y-13172960D02*
X6542253Y-13182484D01*
X6542253Y-13182484D02*
X6532729Y-13172960D01*
X6532729Y-13172960D02*
X6542253Y-13163436D01*
X6542253Y-13163436D02*
X6542253Y-13182484D01*
X6732729Y-12982484D02*
X6637491Y-12982484D01*
X6637491Y-12982484D02*
X6627967Y-13077722D01*
X6627967Y-13077722D02*
X6637491Y-13068198D01*
X6637491Y-13068198D02*
X6656539Y-13058674D01*
X6656539Y-13058674D02*
X6704158Y-13058674D01*
X6704158Y-13058674D02*
X6723205Y-13068198D01*
X6723205Y-13068198D02*
X6732729Y-13077722D01*
X6732729Y-13077722D02*
X6742253Y-13096769D01*
X6742253Y-13096769D02*
X6742253Y-13144388D01*
X6742253Y-13144388D02*
X6732729Y-13163436D01*
X6732729Y-13163436D02*
X6723205Y-13172960D01*
X6723205Y-13172960D02*
X6704158Y-13182484D01*
X6704158Y-13182484D02*
X6656539Y-13182484D01*
X6656539Y-13182484D02*
X6637491Y-13172960D01*
X6637491Y-13172960D02*
X6627967Y-13163436D01*
X6866062Y-12982484D02*
X6885110Y-12982484D01*
X6885110Y-12982484D02*
X6904158Y-12992008D01*
X6904158Y-12992008D02*
X6913682Y-13001531D01*
X6913682Y-13001531D02*
X6923205Y-13020579D01*
X6923205Y-13020579D02*
X6932729Y-13058674D01*
X6932729Y-13058674D02*
X6932729Y-13106293D01*
X6932729Y-13106293D02*
X6923205Y-13144388D01*
X6923205Y-13144388D02*
X6913682Y-13163436D01*
X6913682Y-13163436D02*
X6904158Y-13172960D01*
X6904158Y-13172960D02*
X6885110Y-13182484D01*
X6885110Y-13182484D02*
X6866062Y-13182484D01*
X6866062Y-13182484D02*
X6847015Y-13172960D01*
X6847015Y-13172960D02*
X6837491Y-13163436D01*
X6837491Y-13163436D02*
X6827967Y-13144388D01*
X6827967Y-13144388D02*
X6818443Y-13106293D01*
X6818443Y-13106293D02*
X6818443Y-13058674D01*
X6818443Y-13058674D02*
X6827967Y-13020579D01*
X6827967Y-13020579D02*
X6837491Y-13001531D01*
X6837491Y-13001531D02*
X6847015Y-12992008D01*
X6847015Y-12992008D02*
X6866062Y-12982484D01*
X7056539Y-12982484D02*
X7075586Y-12982484D01*
X7075586Y-12982484D02*
X7094634Y-12992008D01*
X7094634Y-12992008D02*
X7104158Y-13001531D01*
X7104158Y-13001531D02*
X7113682Y-13020579D01*
X7113682Y-13020579D02*
X7123205Y-13058674D01*
X7123205Y-13058674D02*
X7123205Y-13106293D01*
X7123205Y-13106293D02*
X7113682Y-13144388D01*
X7113682Y-13144388D02*
X7104158Y-13163436D01*
X7104158Y-13163436D02*
X7094634Y-13172960D01*
X7094634Y-13172960D02*
X7075586Y-13182484D01*
X7075586Y-13182484D02*
X7056539Y-13182484D01*
X7056539Y-13182484D02*
X7037491Y-13172960D01*
X7037491Y-13172960D02*
X7027967Y-13163436D01*
X7027967Y-13163436D02*
X7018443Y-13144388D01*
X7018443Y-13144388D02*
X7008920Y-13106293D01*
X7008920Y-13106293D02*
X7008920Y-13058674D01*
X7008920Y-13058674D02*
X7018443Y-13020579D01*
X7018443Y-13020579D02*
X7027967Y-13001531D01*
X7027967Y-13001531D02*
X7037491Y-12992008D01*
X7037491Y-12992008D02*
X7056539Y-12982484D01*
X7208920Y-13182484D02*
X7208920Y-13049150D01*
X7208920Y-13068198D02*
X7218443Y-13058674D01*
X7218443Y-13058674D02*
X7237491Y-13049150D01*
X7237491Y-13049150D02*
X7266063Y-13049150D01*
X7266063Y-13049150D02*
X7285110Y-13058674D01*
X7285110Y-13058674D02*
X7294634Y-13077722D01*
X7294634Y-13077722D02*
X7294634Y-13182484D01*
X7294634Y-13077722D02*
X7304158Y-13058674D01*
X7304158Y-13058674D02*
X7323205Y-13049150D01*
X7323205Y-13049150D02*
X7351777Y-13049150D01*
X7351777Y-13049150D02*
X7370824Y-13058674D01*
X7370824Y-13058674D02*
X7380348Y-13077722D01*
X7380348Y-13077722D02*
X7380348Y-13182484D01*
X7475586Y-13182484D02*
X7475586Y-13049150D01*
X7475586Y-13068198D02*
X7485110Y-13058674D01*
X7485110Y-13058674D02*
X7504158Y-13049150D01*
X7504158Y-13049150D02*
X7532729Y-13049150D01*
X7532729Y-13049150D02*
X7551777Y-13058674D01*
X7551777Y-13058674D02*
X7561301Y-13077722D01*
X7561301Y-13077722D02*
X7561301Y-13182484D01*
X7561301Y-13077722D02*
X7570824Y-13058674D01*
X7570824Y-13058674D02*
X7589872Y-13049150D01*
X7589872Y-13049150D02*
X7618443Y-13049150D01*
X7618443Y-13049150D02*
X7637491Y-13058674D01*
X7637491Y-13058674D02*
X7647015Y-13077722D01*
X7647015Y-13077722D02*
X7647015Y-13182484D01*
X8037491Y-12972960D02*
X7866063Y-13230103D01*
X8294634Y-12982484D02*
X8313682Y-12982484D01*
X8313682Y-12982484D02*
X8332729Y-12992008D01*
X8332729Y-12992008D02*
X8342253Y-13001531D01*
X8342253Y-13001531D02*
X8351777Y-13020579D01*
X8351777Y-13020579D02*
X8361301Y-13058674D01*
X8361301Y-13058674D02*
X8361301Y-13106293D01*
X8361301Y-13106293D02*
X8351777Y-13144388D01*
X8351777Y-13144388D02*
X8342253Y-13163436D01*
X8342253Y-13163436D02*
X8332729Y-13172960D01*
X8332729Y-13172960D02*
X8313682Y-13182484D01*
X8313682Y-13182484D02*
X8294634Y-13182484D01*
X8294634Y-13182484D02*
X8275586Y-13172960D01*
X8275586Y-13172960D02*
X8266063Y-13163436D01*
X8266063Y-13163436D02*
X8256539Y-13144388D01*
X8256539Y-13144388D02*
X8247015Y-13106293D01*
X8247015Y-13106293D02*
X8247015Y-13058674D01*
X8247015Y-13058674D02*
X8256539Y-13020579D01*
X8256539Y-13020579D02*
X8266063Y-13001531D01*
X8266063Y-13001531D02*
X8275586Y-12992008D01*
X8275586Y-12992008D02*
X8294634Y-12982484D01*
X8447015Y-13163436D02*
X8456539Y-13172960D01*
X8456539Y-13172960D02*
X8447015Y-13182484D01*
X8447015Y-13182484D02*
X8437491Y-13172960D01*
X8437491Y-13172960D02*
X8447015Y-13163436D01*
X8447015Y-13163436D02*
X8447015Y-13182484D01*
X8580348Y-12982484D02*
X8599396Y-12982484D01*
X8599396Y-12982484D02*
X8618444Y-12992008D01*
X8618444Y-12992008D02*
X8627968Y-13001531D01*
X8627968Y-13001531D02*
X8637491Y-13020579D01*
X8637491Y-13020579D02*
X8647015Y-13058674D01*
X8647015Y-13058674D02*
X8647015Y-13106293D01*
X8647015Y-13106293D02*
X8637491Y-13144388D01*
X8637491Y-13144388D02*
X8627968Y-13163436D01*
X8627968Y-13163436D02*
X8618444Y-13172960D01*
X8618444Y-13172960D02*
X8599396Y-13182484D01*
X8599396Y-13182484D02*
X8580348Y-13182484D01*
X8580348Y-13182484D02*
X8561301Y-13172960D01*
X8561301Y-13172960D02*
X8551777Y-13163436D01*
X8551777Y-13163436D02*
X8542253Y-13144388D01*
X8542253Y-13144388D02*
X8532729Y-13106293D01*
X8532729Y-13106293D02*
X8532729Y-13058674D01*
X8532729Y-13058674D02*
X8542253Y-13020579D01*
X8542253Y-13020579D02*
X8551777Y-13001531D01*
X8551777Y-13001531D02*
X8561301Y-12992008D01*
X8561301Y-12992008D02*
X8580348Y-12982484D01*
X8827968Y-12982484D02*
X8732729Y-12982484D01*
X8732729Y-12982484D02*
X8723206Y-13077722D01*
X8723206Y-13077722D02*
X8732729Y-13068198D01*
X8732729Y-13068198D02*
X8751777Y-13058674D01*
X8751777Y-13058674D02*
X8799396Y-13058674D01*
X8799396Y-13058674D02*
X8818444Y-13068198D01*
X8818444Y-13068198D02*
X8827968Y-13077722D01*
X8827968Y-13077722D02*
X8837491Y-13096769D01*
X8837491Y-13096769D02*
X8837491Y-13144388D01*
X8837491Y-13144388D02*
X8827968Y-13163436D01*
X8827968Y-13163436D02*
X8818444Y-13172960D01*
X8818444Y-13172960D02*
X8799396Y-13182484D01*
X8799396Y-13182484D02*
X8751777Y-13182484D01*
X8751777Y-13182484D02*
X8732729Y-13172960D01*
X8732729Y-13172960D02*
X8723206Y-13163436D01*
X8932729Y-13182484D02*
X8970825Y-13182484D01*
X8970825Y-13182484D02*
X8989872Y-13172960D01*
X8989872Y-13172960D02*
X8999396Y-13163436D01*
X8999396Y-13163436D02*
X9018444Y-13134865D01*
X9018444Y-13134865D02*
X9027968Y-13096769D01*
X9027968Y-13096769D02*
X9027968Y-13020579D01*
X9027968Y-13020579D02*
X9018444Y-13001531D01*
X9018444Y-13001531D02*
X9008920Y-12992008D01*
X9008920Y-12992008D02*
X8989872Y-12982484D01*
X8989872Y-12982484D02*
X8951777Y-12982484D01*
X8951777Y-12982484D02*
X8932729Y-12992008D01*
X8932729Y-12992008D02*
X8923206Y-13001531D01*
X8923206Y-13001531D02*
X8913682Y-13020579D01*
X8913682Y-13020579D02*
X8913682Y-13068198D01*
X8913682Y-13068198D02*
X8923206Y-13087246D01*
X8923206Y-13087246D02*
X8932729Y-13096769D01*
X8932729Y-13096769D02*
X8951777Y-13106293D01*
X8951777Y-13106293D02*
X8989872Y-13106293D01*
X8989872Y-13106293D02*
X9008920Y-13096769D01*
X9008920Y-13096769D02*
X9018444Y-13087246D01*
X9018444Y-13087246D02*
X9027968Y-13068198D01*
X9218444Y-13182484D02*
X9104158Y-13182484D01*
X9161301Y-13182484D02*
X9161301Y-12982484D01*
X9161301Y-12982484D02*
X9142253Y-13011055D01*
X9142253Y-13011055D02*
X9123206Y-13030103D01*
X9123206Y-13030103D02*
X9104158Y-13039627D01*
X9294634Y-12982484D02*
X9294634Y-13020579D01*
X9370825Y-12982484D02*
X9370825Y-13020579D01*
X9666063Y-13258674D02*
X9656539Y-13249150D01*
X9656539Y-13249150D02*
X9637491Y-13220579D01*
X9637491Y-13220579D02*
X9627968Y-13201531D01*
X9627968Y-13201531D02*
X9618444Y-13172960D01*
X9618444Y-13172960D02*
X9608920Y-13125341D01*
X9608920Y-13125341D02*
X9608920Y-13087246D01*
X9608920Y-13087246D02*
X9618444Y-13039627D01*
X9618444Y-13039627D02*
X9627968Y-13011055D01*
X9627968Y-13011055D02*
X9637491Y-12992008D01*
X9637491Y-12992008D02*
X9656539Y-12963436D01*
X9656539Y-12963436D02*
X9666063Y-12953912D01*
X9732730Y-13001531D02*
X9742253Y-12992008D01*
X9742253Y-12992008D02*
X9761301Y-12982484D01*
X9761301Y-12982484D02*
X9808920Y-12982484D01*
X9808920Y-12982484D02*
X9827968Y-12992008D01*
X9827968Y-12992008D02*
X9837491Y-13001531D01*
X9837491Y-13001531D02*
X9847015Y-13020579D01*
X9847015Y-13020579D02*
X9847015Y-13039627D01*
X9847015Y-13039627D02*
X9837491Y-13068198D01*
X9837491Y-13068198D02*
X9723206Y-13182484D01*
X9723206Y-13182484D02*
X9847015Y-13182484D01*
X10085111Y-13182484D02*
X10085111Y-12982484D01*
X10170825Y-13182484D02*
X10170825Y-13077722D01*
X10170825Y-13077722D02*
X10161301Y-13058674D01*
X10161301Y-13058674D02*
X10142253Y-13049150D01*
X10142253Y-13049150D02*
X10113682Y-13049150D01*
X10113682Y-13049150D02*
X10094634Y-13058674D01*
X10094634Y-13058674D02*
X10085111Y-13068198D01*
X10294634Y-13182484D02*
X10275587Y-13172960D01*
X10275587Y-13172960D02*
X10266063Y-13163436D01*
X10266063Y-13163436D02*
X10256539Y-13144388D01*
X10256539Y-13144388D02*
X10256539Y-13087246D01*
X10256539Y-13087246D02*
X10266063Y-13068198D01*
X10266063Y-13068198D02*
X10275587Y-13058674D01*
X10275587Y-13058674D02*
X10294634Y-13049150D01*
X10294634Y-13049150D02*
X10323206Y-13049150D01*
X10323206Y-13049150D02*
X10342253Y-13058674D01*
X10342253Y-13058674D02*
X10351777Y-13068198D01*
X10351777Y-13068198D02*
X10361301Y-13087246D01*
X10361301Y-13087246D02*
X10361301Y-13144388D01*
X10361301Y-13144388D02*
X10351777Y-13163436D01*
X10351777Y-13163436D02*
X10342253Y-13172960D01*
X10342253Y-13172960D02*
X10323206Y-13182484D01*
X10323206Y-13182484D02*
X10294634Y-13182484D01*
X10475587Y-13182484D02*
X10456539Y-13172960D01*
X10456539Y-13172960D02*
X10447015Y-13153912D01*
X10447015Y-13153912D02*
X10447015Y-12982484D01*
X10627968Y-13172960D02*
X10608920Y-13182484D01*
X10608920Y-13182484D02*
X10570825Y-13182484D01*
X10570825Y-13182484D02*
X10551777Y-13172960D01*
X10551777Y-13172960D02*
X10542253Y-13153912D01*
X10542253Y-13153912D02*
X10542253Y-13077722D01*
X10542253Y-13077722D02*
X10551777Y-13058674D01*
X10551777Y-13058674D02*
X10570825Y-13049150D01*
X10570825Y-13049150D02*
X10608920Y-13049150D01*
X10608920Y-13049150D02*
X10627968Y-13058674D01*
X10627968Y-13058674D02*
X10637492Y-13077722D01*
X10637492Y-13077722D02*
X10637492Y-13096769D01*
X10637492Y-13096769D02*
X10542253Y-13115817D01*
X10713682Y-13172960D02*
X10732730Y-13182484D01*
X10732730Y-13182484D02*
X10770825Y-13182484D01*
X10770825Y-13182484D02*
X10789873Y-13172960D01*
X10789873Y-13172960D02*
X10799396Y-13153912D01*
X10799396Y-13153912D02*
X10799396Y-13144388D01*
X10799396Y-13144388D02*
X10789873Y-13125341D01*
X10789873Y-13125341D02*
X10770825Y-13115817D01*
X10770825Y-13115817D02*
X10742253Y-13115817D01*
X10742253Y-13115817D02*
X10723206Y-13106293D01*
X10723206Y-13106293D02*
X10713682Y-13087246D01*
X10713682Y-13087246D02*
X10713682Y-13077722D01*
X10713682Y-13077722D02*
X10723206Y-13058674D01*
X10723206Y-13058674D02*
X10742253Y-13049150D01*
X10742253Y-13049150D02*
X10770825Y-13049150D01*
X10770825Y-13049150D02*
X10789873Y-13058674D01*
X10866063Y-13258674D02*
X10875587Y-13249150D01*
X10875587Y-13249150D02*
X10894634Y-13220579D01*
X10894634Y-13220579D02*
X10904158Y-13201531D01*
X10904158Y-13201531D02*
X10913682Y-13172960D01*
X10913682Y-13172960D02*
X10923206Y-13125341D01*
X10923206Y-13125341D02*
X10923206Y-13087246D01*
X10923206Y-13087246D02*
X10913682Y-13039627D01*
X10913682Y-13039627D02*
X10904158Y-13011055D01*
X10904158Y-13011055D02*
X10894634Y-12992008D01*
X10894634Y-12992008D02*
X10875587Y-12963436D01*
X10875587Y-12963436D02*
X10866063Y-12953912D01*
X11227968Y-13258674D02*
X11218444Y-13249150D01*
X11218444Y-13249150D02*
X11199396Y-13220579D01*
X11199396Y-13220579D02*
X11189872Y-13201531D01*
X11189872Y-13201531D02*
X11180349Y-13172960D01*
X11180349Y-13172960D02*
X11170825Y-13125341D01*
X11170825Y-13125341D02*
X11170825Y-13087246D01*
X11170825Y-13087246D02*
X11180349Y-13039627D01*
X11180349Y-13039627D02*
X11189872Y-13011055D01*
X11189872Y-13011055D02*
X11199396Y-12992008D01*
X11199396Y-12992008D02*
X11218444Y-12963436D01*
X11218444Y-12963436D02*
X11227968Y-12953912D01*
X11304158Y-13049150D02*
X11304158Y-13182484D01*
X11304158Y-13068198D02*
X11313682Y-13058674D01*
X11313682Y-13058674D02*
X11332730Y-13049150D01*
X11332730Y-13049150D02*
X11361301Y-13049150D01*
X11361301Y-13049150D02*
X11380349Y-13058674D01*
X11380349Y-13058674D02*
X11389872Y-13077722D01*
X11389872Y-13077722D02*
X11389872Y-13182484D01*
X11513682Y-13182484D02*
X11494634Y-13172960D01*
X11494634Y-13172960D02*
X11485111Y-13163436D01*
X11485111Y-13163436D02*
X11475587Y-13144388D01*
X11475587Y-13144388D02*
X11475587Y-13087246D01*
X11475587Y-13087246D02*
X11485111Y-13068198D01*
X11485111Y-13068198D02*
X11494634Y-13058674D01*
X11494634Y-13058674D02*
X11513682Y-13049150D01*
X11513682Y-13049150D02*
X11542253Y-13049150D01*
X11542253Y-13049150D02*
X11561301Y-13058674D01*
X11561301Y-13058674D02*
X11570825Y-13068198D01*
X11570825Y-13068198D02*
X11580349Y-13087246D01*
X11580349Y-13087246D02*
X11580349Y-13144388D01*
X11580349Y-13144388D02*
X11570825Y-13163436D01*
X11570825Y-13163436D02*
X11561301Y-13172960D01*
X11561301Y-13172960D02*
X11542253Y-13182484D01*
X11542253Y-13182484D02*
X11513682Y-13182484D01*
X11637492Y-13049150D02*
X11713682Y-13049150D01*
X11666063Y-12982484D02*
X11666063Y-13153912D01*
X11666063Y-13153912D02*
X11675587Y-13172960D01*
X11675587Y-13172960D02*
X11694634Y-13182484D01*
X11694634Y-13182484D02*
X11713682Y-13182484D01*
X11932730Y-13049150D02*
X11932730Y-13249150D01*
X11932730Y-13058674D02*
X11951777Y-13049150D01*
X11951777Y-13049150D02*
X11989873Y-13049150D01*
X11989873Y-13049150D02*
X12008920Y-13058674D01*
X12008920Y-13058674D02*
X12018444Y-13068198D01*
X12018444Y-13068198D02*
X12027968Y-13087246D01*
X12027968Y-13087246D02*
X12027968Y-13144388D01*
X12027968Y-13144388D02*
X12018444Y-13163436D01*
X12018444Y-13163436D02*
X12008920Y-13172960D01*
X12008920Y-13172960D02*
X11989873Y-13182484D01*
X11989873Y-13182484D02*
X11951777Y-13182484D01*
X11951777Y-13182484D02*
X11932730Y-13172960D01*
X12142253Y-13182484D02*
X12123206Y-13172960D01*
X12123206Y-13172960D02*
X12113682Y-13153912D01*
X12113682Y-13153912D02*
X12113682Y-12982484D01*
X12304158Y-13182484D02*
X12304158Y-13077722D01*
X12304158Y-13077722D02*
X12294634Y-13058674D01*
X12294634Y-13058674D02*
X12275587Y-13049150D01*
X12275587Y-13049150D02*
X12237492Y-13049150D01*
X12237492Y-13049150D02*
X12218444Y-13058674D01*
X12304158Y-13172960D02*
X12285111Y-13182484D01*
X12285111Y-13182484D02*
X12237492Y-13182484D01*
X12237492Y-13182484D02*
X12218444Y-13172960D01*
X12218444Y-13172960D02*
X12208920Y-13153912D01*
X12208920Y-13153912D02*
X12208920Y-13134865D01*
X12208920Y-13134865D02*
X12218444Y-13115817D01*
X12218444Y-13115817D02*
X12237492Y-13106293D01*
X12237492Y-13106293D02*
X12285111Y-13106293D01*
X12285111Y-13106293D02*
X12304158Y-13096769D01*
X12370825Y-13049150D02*
X12447015Y-13049150D01*
X12399396Y-12982484D02*
X12399396Y-13153912D01*
X12399396Y-13153912D02*
X12408920Y-13172960D01*
X12408920Y-13172960D02*
X12427968Y-13182484D01*
X12427968Y-13182484D02*
X12447015Y-13182484D01*
X12589873Y-13172960D02*
X12570825Y-13182484D01*
X12570825Y-13182484D02*
X12532730Y-13182484D01*
X12532730Y-13182484D02*
X12513682Y-13172960D01*
X12513682Y-13172960D02*
X12504158Y-13153912D01*
X12504158Y-13153912D02*
X12504158Y-13077722D01*
X12504158Y-13077722D02*
X12513682Y-13058674D01*
X12513682Y-13058674D02*
X12532730Y-13049150D01*
X12532730Y-13049150D02*
X12570825Y-13049150D01*
X12570825Y-13049150D02*
X12589873Y-13058674D01*
X12589873Y-13058674D02*
X12599396Y-13077722D01*
X12599396Y-13077722D02*
X12599396Y-13096769D01*
X12599396Y-13096769D02*
X12504158Y-13115817D01*
X12770825Y-13182484D02*
X12770825Y-12982484D01*
X12770825Y-13172960D02*
X12751777Y-13182484D01*
X12751777Y-13182484D02*
X12713682Y-13182484D01*
X12713682Y-13182484D02*
X12694634Y-13172960D01*
X12694634Y-13172960D02*
X12685111Y-13163436D01*
X12685111Y-13163436D02*
X12675587Y-13144388D01*
X12675587Y-13144388D02*
X12675587Y-13087246D01*
X12675587Y-13087246D02*
X12685111Y-13068198D01*
X12685111Y-13068198D02*
X12694634Y-13058674D01*
X12694634Y-13058674D02*
X12713682Y-13049150D01*
X12713682Y-13049150D02*
X12751777Y-13049150D01*
X12751777Y-13049150D02*
X12770825Y-13058674D01*
X12847015Y-13258674D02*
X12856539Y-13249150D01*
X12856539Y-13249150D02*
X12875587Y-13220579D01*
X12875587Y-13220579D02*
X12885111Y-13201531D01*
X12885111Y-13201531D02*
X12894634Y-13172960D01*
X12894634Y-13172960D02*
X12904158Y-13125341D01*
X12904158Y-13125341D02*
X12904158Y-13087246D01*
X12904158Y-13087246D02*
X12894634Y-13039627D01*
X12894634Y-13039627D02*
X12885111Y-13011055D01*
X12885111Y-13011055D02*
X12875587Y-12992008D01*
X12875587Y-12992008D02*
X12856539Y-12963436D01*
X12856539Y-12963436D02*
X12847015Y-12953912D01*
D13*
X6091000Y-13361000D02*
G75*
G03*
X6091000Y-13361000I-90000J0D01*
G01*
D11*
X6456539Y-13452484D02*
X6342253Y-13452484D01*
X6399396Y-13452484D02*
X6399396Y-13252484D01*
X6399396Y-13252484D02*
X6380348Y-13281055D01*
X6380348Y-13281055D02*
X6361301Y-13300103D01*
X6361301Y-13300103D02*
X6342253Y-13309627D01*
X6542253Y-13433436D02*
X6551777Y-13442960D01*
X6551777Y-13442960D02*
X6542253Y-13452484D01*
X6542253Y-13452484D02*
X6532729Y-13442960D01*
X6532729Y-13442960D02*
X6542253Y-13433436D01*
X6542253Y-13433436D02*
X6542253Y-13452484D01*
X6666062Y-13338198D02*
X6647015Y-13328674D01*
X6647015Y-13328674D02*
X6637491Y-13319150D01*
X6637491Y-13319150D02*
X6627967Y-13300103D01*
X6627967Y-13300103D02*
X6627967Y-13290579D01*
X6627967Y-13290579D02*
X6637491Y-13271531D01*
X6637491Y-13271531D02*
X6647015Y-13262008D01*
X6647015Y-13262008D02*
X6666062Y-13252484D01*
X6666062Y-13252484D02*
X6704158Y-13252484D01*
X6704158Y-13252484D02*
X6723205Y-13262008D01*
X6723205Y-13262008D02*
X6732729Y-13271531D01*
X6732729Y-13271531D02*
X6742253Y-13290579D01*
X6742253Y-13290579D02*
X6742253Y-13300103D01*
X6742253Y-13300103D02*
X6732729Y-13319150D01*
X6732729Y-13319150D02*
X6723205Y-13328674D01*
X6723205Y-13328674D02*
X6704158Y-13338198D01*
X6704158Y-13338198D02*
X6666062Y-13338198D01*
X6666062Y-13338198D02*
X6647015Y-13347722D01*
X6647015Y-13347722D02*
X6637491Y-13357246D01*
X6637491Y-13357246D02*
X6627967Y-13376293D01*
X6627967Y-13376293D02*
X6627967Y-13414388D01*
X6627967Y-13414388D02*
X6637491Y-13433436D01*
X6637491Y-13433436D02*
X6647015Y-13442960D01*
X6647015Y-13442960D02*
X6666062Y-13452484D01*
X6666062Y-13452484D02*
X6704158Y-13452484D01*
X6704158Y-13452484D02*
X6723205Y-13442960D01*
X6723205Y-13442960D02*
X6732729Y-13433436D01*
X6732729Y-13433436D02*
X6742253Y-13414388D01*
X6742253Y-13414388D02*
X6742253Y-13376293D01*
X6742253Y-13376293D02*
X6732729Y-13357246D01*
X6732729Y-13357246D02*
X6723205Y-13347722D01*
X6723205Y-13347722D02*
X6704158Y-13338198D01*
X6866062Y-13252484D02*
X6885110Y-13252484D01*
X6885110Y-13252484D02*
X6904158Y-13262008D01*
X6904158Y-13262008D02*
X6913682Y-13271531D01*
X6913682Y-13271531D02*
X6923205Y-13290579D01*
X6923205Y-13290579D02*
X6932729Y-13328674D01*
X6932729Y-13328674D02*
X6932729Y-13376293D01*
X6932729Y-13376293D02*
X6923205Y-13414388D01*
X6923205Y-13414388D02*
X6913682Y-13433436D01*
X6913682Y-13433436D02*
X6904158Y-13442960D01*
X6904158Y-13442960D02*
X6885110Y-13452484D01*
X6885110Y-13452484D02*
X6866062Y-13452484D01*
X6866062Y-13452484D02*
X6847015Y-13442960D01*
X6847015Y-13442960D02*
X6837491Y-13433436D01*
X6837491Y-13433436D02*
X6827967Y-13414388D01*
X6827967Y-13414388D02*
X6818443Y-13376293D01*
X6818443Y-13376293D02*
X6818443Y-13328674D01*
X6818443Y-13328674D02*
X6827967Y-13290579D01*
X6827967Y-13290579D02*
X6837491Y-13271531D01*
X6837491Y-13271531D02*
X6847015Y-13262008D01*
X6847015Y-13262008D02*
X6866062Y-13252484D01*
X7056539Y-13252484D02*
X7075586Y-13252484D01*
X7075586Y-13252484D02*
X7094634Y-13262008D01*
X7094634Y-13262008D02*
X7104158Y-13271531D01*
X7104158Y-13271531D02*
X7113682Y-13290579D01*
X7113682Y-13290579D02*
X7123205Y-13328674D01*
X7123205Y-13328674D02*
X7123205Y-13376293D01*
X7123205Y-13376293D02*
X7113682Y-13414388D01*
X7113682Y-13414388D02*
X7104158Y-13433436D01*
X7104158Y-13433436D02*
X7094634Y-13442960D01*
X7094634Y-13442960D02*
X7075586Y-13452484D01*
X7075586Y-13452484D02*
X7056539Y-13452484D01*
X7056539Y-13452484D02*
X7037491Y-13442960D01*
X7037491Y-13442960D02*
X7027967Y-13433436D01*
X7027967Y-13433436D02*
X7018443Y-13414388D01*
X7018443Y-13414388D02*
X7008920Y-13376293D01*
X7008920Y-13376293D02*
X7008920Y-13328674D01*
X7008920Y-13328674D02*
X7018443Y-13290579D01*
X7018443Y-13290579D02*
X7027967Y-13271531D01*
X7027967Y-13271531D02*
X7037491Y-13262008D01*
X7037491Y-13262008D02*
X7056539Y-13252484D01*
X7208920Y-13452484D02*
X7208920Y-13319150D01*
X7208920Y-13338198D02*
X7218443Y-13328674D01*
X7218443Y-13328674D02*
X7237491Y-13319150D01*
X7237491Y-13319150D02*
X7266063Y-13319150D01*
X7266063Y-13319150D02*
X7285110Y-13328674D01*
X7285110Y-13328674D02*
X7294634Y-13347722D01*
X7294634Y-13347722D02*
X7294634Y-13452484D01*
X7294634Y-13347722D02*
X7304158Y-13328674D01*
X7304158Y-13328674D02*
X7323205Y-13319150D01*
X7323205Y-13319150D02*
X7351777Y-13319150D01*
X7351777Y-13319150D02*
X7370824Y-13328674D01*
X7370824Y-13328674D02*
X7380348Y-13347722D01*
X7380348Y-13347722D02*
X7380348Y-13452484D01*
X7475586Y-13452484D02*
X7475586Y-13319150D01*
X7475586Y-13338198D02*
X7485110Y-13328674D01*
X7485110Y-13328674D02*
X7504158Y-13319150D01*
X7504158Y-13319150D02*
X7532729Y-13319150D01*
X7532729Y-13319150D02*
X7551777Y-13328674D01*
X7551777Y-13328674D02*
X7561301Y-13347722D01*
X7561301Y-13347722D02*
X7561301Y-13452484D01*
X7561301Y-13347722D02*
X7570824Y-13328674D01*
X7570824Y-13328674D02*
X7589872Y-13319150D01*
X7589872Y-13319150D02*
X7618443Y-13319150D01*
X7618443Y-13319150D02*
X7637491Y-13328674D01*
X7637491Y-13328674D02*
X7647015Y-13347722D01*
X7647015Y-13347722D02*
X7647015Y-13452484D01*
X8037491Y-13242960D02*
X7866063Y-13500103D01*
X8294634Y-13252484D02*
X8313682Y-13252484D01*
X8313682Y-13252484D02*
X8332729Y-13262008D01*
X8332729Y-13262008D02*
X8342253Y-13271531D01*
X8342253Y-13271531D02*
X8351777Y-13290579D01*
X8351777Y-13290579D02*
X8361301Y-13328674D01*
X8361301Y-13328674D02*
X8361301Y-13376293D01*
X8361301Y-13376293D02*
X8351777Y-13414388D01*
X8351777Y-13414388D02*
X8342253Y-13433436D01*
X8342253Y-13433436D02*
X8332729Y-13442960D01*
X8332729Y-13442960D02*
X8313682Y-13452484D01*
X8313682Y-13452484D02*
X8294634Y-13452484D01*
X8294634Y-13452484D02*
X8275586Y-13442960D01*
X8275586Y-13442960D02*
X8266063Y-13433436D01*
X8266063Y-13433436D02*
X8256539Y-13414388D01*
X8256539Y-13414388D02*
X8247015Y-13376293D01*
X8247015Y-13376293D02*
X8247015Y-13328674D01*
X8247015Y-13328674D02*
X8256539Y-13290579D01*
X8256539Y-13290579D02*
X8266063Y-13271531D01*
X8266063Y-13271531D02*
X8275586Y-13262008D01*
X8275586Y-13262008D02*
X8294634Y-13252484D01*
X8447015Y-13433436D02*
X8456539Y-13442960D01*
X8456539Y-13442960D02*
X8447015Y-13452484D01*
X8447015Y-13452484D02*
X8437491Y-13442960D01*
X8437491Y-13442960D02*
X8447015Y-13433436D01*
X8447015Y-13433436D02*
X8447015Y-13452484D01*
X8580348Y-13252484D02*
X8599396Y-13252484D01*
X8599396Y-13252484D02*
X8618444Y-13262008D01*
X8618444Y-13262008D02*
X8627968Y-13271531D01*
X8627968Y-13271531D02*
X8637491Y-13290579D01*
X8637491Y-13290579D02*
X8647015Y-13328674D01*
X8647015Y-13328674D02*
X8647015Y-13376293D01*
X8647015Y-13376293D02*
X8637491Y-13414388D01*
X8637491Y-13414388D02*
X8627968Y-13433436D01*
X8627968Y-13433436D02*
X8618444Y-13442960D01*
X8618444Y-13442960D02*
X8599396Y-13452484D01*
X8599396Y-13452484D02*
X8580348Y-13452484D01*
X8580348Y-13452484D02*
X8561301Y-13442960D01*
X8561301Y-13442960D02*
X8551777Y-13433436D01*
X8551777Y-13433436D02*
X8542253Y-13414388D01*
X8542253Y-13414388D02*
X8532729Y-13376293D01*
X8532729Y-13376293D02*
X8532729Y-13328674D01*
X8532729Y-13328674D02*
X8542253Y-13290579D01*
X8542253Y-13290579D02*
X8551777Y-13271531D01*
X8551777Y-13271531D02*
X8561301Y-13262008D01*
X8561301Y-13262008D02*
X8580348Y-13252484D01*
X8713682Y-13252484D02*
X8847015Y-13252484D01*
X8847015Y-13252484D02*
X8761301Y-13452484D01*
X8961301Y-13252484D02*
X8980349Y-13252484D01*
X8980349Y-13252484D02*
X8999396Y-13262008D01*
X8999396Y-13262008D02*
X9008920Y-13271531D01*
X9008920Y-13271531D02*
X9018444Y-13290579D01*
X9018444Y-13290579D02*
X9027968Y-13328674D01*
X9027968Y-13328674D02*
X9027968Y-13376293D01*
X9027968Y-13376293D02*
X9018444Y-13414388D01*
X9018444Y-13414388D02*
X9008920Y-13433436D01*
X9008920Y-13433436D02*
X8999396Y-13442960D01*
X8999396Y-13442960D02*
X8980349Y-13452484D01*
X8980349Y-13452484D02*
X8961301Y-13452484D01*
X8961301Y-13452484D02*
X8942253Y-13442960D01*
X8942253Y-13442960D02*
X8932729Y-13433436D01*
X8932729Y-13433436D02*
X8923206Y-13414388D01*
X8923206Y-13414388D02*
X8913682Y-13376293D01*
X8913682Y-13376293D02*
X8913682Y-13328674D01*
X8913682Y-13328674D02*
X8923206Y-13290579D01*
X8923206Y-13290579D02*
X8932729Y-13271531D01*
X8932729Y-13271531D02*
X8942253Y-13262008D01*
X8942253Y-13262008D02*
X8961301Y-13252484D01*
X9123206Y-13452484D02*
X9161301Y-13452484D01*
X9161301Y-13452484D02*
X9180349Y-13442960D01*
X9180349Y-13442960D02*
X9189872Y-13433436D01*
X9189872Y-13433436D02*
X9208920Y-13404865D01*
X9208920Y-13404865D02*
X9218444Y-13366769D01*
X9218444Y-13366769D02*
X9218444Y-13290579D01*
X9218444Y-13290579D02*
X9208920Y-13271531D01*
X9208920Y-13271531D02*
X9199396Y-13262008D01*
X9199396Y-13262008D02*
X9180349Y-13252484D01*
X9180349Y-13252484D02*
X9142253Y-13252484D01*
X9142253Y-13252484D02*
X9123206Y-13262008D01*
X9123206Y-13262008D02*
X9113682Y-13271531D01*
X9113682Y-13271531D02*
X9104158Y-13290579D01*
X9104158Y-13290579D02*
X9104158Y-13338198D01*
X9104158Y-13338198D02*
X9113682Y-13357246D01*
X9113682Y-13357246D02*
X9123206Y-13366769D01*
X9123206Y-13366769D02*
X9142253Y-13376293D01*
X9142253Y-13376293D02*
X9180349Y-13376293D01*
X9180349Y-13376293D02*
X9199396Y-13366769D01*
X9199396Y-13366769D02*
X9208920Y-13357246D01*
X9208920Y-13357246D02*
X9218444Y-13338198D01*
X9294634Y-13252484D02*
X9294634Y-13290579D01*
X9370825Y-13252484D02*
X9370825Y-13290579D01*
X9666063Y-13528674D02*
X9656539Y-13519150D01*
X9656539Y-13519150D02*
X9637491Y-13490579D01*
X9637491Y-13490579D02*
X9627968Y-13471531D01*
X9627968Y-13471531D02*
X9618444Y-13442960D01*
X9618444Y-13442960D02*
X9608920Y-13395341D01*
X9608920Y-13395341D02*
X9608920Y-13357246D01*
X9608920Y-13357246D02*
X9618444Y-13309627D01*
X9618444Y-13309627D02*
X9627968Y-13281055D01*
X9627968Y-13281055D02*
X9637491Y-13262008D01*
X9637491Y-13262008D02*
X9656539Y-13233436D01*
X9656539Y-13233436D02*
X9666063Y-13223912D01*
X9732730Y-13271531D02*
X9742253Y-13262008D01*
X9742253Y-13262008D02*
X9761301Y-13252484D01*
X9761301Y-13252484D02*
X9808920Y-13252484D01*
X9808920Y-13252484D02*
X9827968Y-13262008D01*
X9827968Y-13262008D02*
X9837491Y-13271531D01*
X9837491Y-13271531D02*
X9847015Y-13290579D01*
X9847015Y-13290579D02*
X9847015Y-13309627D01*
X9847015Y-13309627D02*
X9837491Y-13338198D01*
X9837491Y-13338198D02*
X9723206Y-13452484D01*
X9723206Y-13452484D02*
X9847015Y-13452484D01*
X10085111Y-13452484D02*
X10085111Y-13252484D01*
X10170825Y-13452484D02*
X10170825Y-13347722D01*
X10170825Y-13347722D02*
X10161301Y-13328674D01*
X10161301Y-13328674D02*
X10142253Y-13319150D01*
X10142253Y-13319150D02*
X10113682Y-13319150D01*
X10113682Y-13319150D02*
X10094634Y-13328674D01*
X10094634Y-13328674D02*
X10085111Y-13338198D01*
X10294634Y-13452484D02*
X10275587Y-13442960D01*
X10275587Y-13442960D02*
X10266063Y-13433436D01*
X10266063Y-13433436D02*
X10256539Y-13414388D01*
X10256539Y-13414388D02*
X10256539Y-13357246D01*
X10256539Y-13357246D02*
X10266063Y-13338198D01*
X10266063Y-13338198D02*
X10275587Y-13328674D01*
X10275587Y-13328674D02*
X10294634Y-13319150D01*
X10294634Y-13319150D02*
X10323206Y-13319150D01*
X10323206Y-13319150D02*
X10342253Y-13328674D01*
X10342253Y-13328674D02*
X10351777Y-13338198D01*
X10351777Y-13338198D02*
X10361301Y-13357246D01*
X10361301Y-13357246D02*
X10361301Y-13414388D01*
X10361301Y-13414388D02*
X10351777Y-13433436D01*
X10351777Y-13433436D02*
X10342253Y-13442960D01*
X10342253Y-13442960D02*
X10323206Y-13452484D01*
X10323206Y-13452484D02*
X10294634Y-13452484D01*
X10475587Y-13452484D02*
X10456539Y-13442960D01*
X10456539Y-13442960D02*
X10447015Y-13423912D01*
X10447015Y-13423912D02*
X10447015Y-13252484D01*
X10627968Y-13442960D02*
X10608920Y-13452484D01*
X10608920Y-13452484D02*
X10570825Y-13452484D01*
X10570825Y-13452484D02*
X10551777Y-13442960D01*
X10551777Y-13442960D02*
X10542253Y-13423912D01*
X10542253Y-13423912D02*
X10542253Y-13347722D01*
X10542253Y-13347722D02*
X10551777Y-13328674D01*
X10551777Y-13328674D02*
X10570825Y-13319150D01*
X10570825Y-13319150D02*
X10608920Y-13319150D01*
X10608920Y-13319150D02*
X10627968Y-13328674D01*
X10627968Y-13328674D02*
X10637492Y-13347722D01*
X10637492Y-13347722D02*
X10637492Y-13366769D01*
X10637492Y-13366769D02*
X10542253Y-13385817D01*
X10713682Y-13442960D02*
X10732730Y-13452484D01*
X10732730Y-13452484D02*
X10770825Y-13452484D01*
X10770825Y-13452484D02*
X10789873Y-13442960D01*
X10789873Y-13442960D02*
X10799396Y-13423912D01*
X10799396Y-13423912D02*
X10799396Y-13414388D01*
X10799396Y-13414388D02*
X10789873Y-13395341D01*
X10789873Y-13395341D02*
X10770825Y-13385817D01*
X10770825Y-13385817D02*
X10742253Y-13385817D01*
X10742253Y-13385817D02*
X10723206Y-13376293D01*
X10723206Y-13376293D02*
X10713682Y-13357246D01*
X10713682Y-13357246D02*
X10713682Y-13347722D01*
X10713682Y-13347722D02*
X10723206Y-13328674D01*
X10723206Y-13328674D02*
X10742253Y-13319150D01*
X10742253Y-13319150D02*
X10770825Y-13319150D01*
X10770825Y-13319150D02*
X10789873Y-13328674D01*
X10866063Y-13528674D02*
X10875587Y-13519150D01*
X10875587Y-13519150D02*
X10894634Y-13490579D01*
X10894634Y-13490579D02*
X10904158Y-13471531D01*
X10904158Y-13471531D02*
X10913682Y-13442960D01*
X10913682Y-13442960D02*
X10923206Y-13395341D01*
X10923206Y-13395341D02*
X10923206Y-13357246D01*
X10923206Y-13357246D02*
X10913682Y-13309627D01*
X10913682Y-13309627D02*
X10904158Y-13281055D01*
X10904158Y-13281055D02*
X10894634Y-13262008D01*
X10894634Y-13262008D02*
X10875587Y-13233436D01*
X10875587Y-13233436D02*
X10866063Y-13223912D01*
X11227968Y-13528674D02*
X11218444Y-13519150D01*
X11218444Y-13519150D02*
X11199396Y-13490579D01*
X11199396Y-13490579D02*
X11189872Y-13471531D01*
X11189872Y-13471531D02*
X11180349Y-13442960D01*
X11180349Y-13442960D02*
X11170825Y-13395341D01*
X11170825Y-13395341D02*
X11170825Y-13357246D01*
X11170825Y-13357246D02*
X11180349Y-13309627D01*
X11180349Y-13309627D02*
X11189872Y-13281055D01*
X11189872Y-13281055D02*
X11199396Y-13262008D01*
X11199396Y-13262008D02*
X11218444Y-13233436D01*
X11218444Y-13233436D02*
X11227968Y-13223912D01*
X11304158Y-13319150D02*
X11304158Y-13452484D01*
X11304158Y-13338198D02*
X11313682Y-13328674D01*
X11313682Y-13328674D02*
X11332730Y-13319150D01*
X11332730Y-13319150D02*
X11361301Y-13319150D01*
X11361301Y-13319150D02*
X11380349Y-13328674D01*
X11380349Y-13328674D02*
X11389872Y-13347722D01*
X11389872Y-13347722D02*
X11389872Y-13452484D01*
X11513682Y-13452484D02*
X11494634Y-13442960D01*
X11494634Y-13442960D02*
X11485111Y-13433436D01*
X11485111Y-13433436D02*
X11475587Y-13414388D01*
X11475587Y-13414388D02*
X11475587Y-13357246D01*
X11475587Y-13357246D02*
X11485111Y-13338198D01*
X11485111Y-13338198D02*
X11494634Y-13328674D01*
X11494634Y-13328674D02*
X11513682Y-13319150D01*
X11513682Y-13319150D02*
X11542253Y-13319150D01*
X11542253Y-13319150D02*
X11561301Y-13328674D01*
X11561301Y-13328674D02*
X11570825Y-13338198D01*
X11570825Y-13338198D02*
X11580349Y-13357246D01*
X11580349Y-13357246D02*
X11580349Y-13414388D01*
X11580349Y-13414388D02*
X11570825Y-13433436D01*
X11570825Y-13433436D02*
X11561301Y-13442960D01*
X11561301Y-13442960D02*
X11542253Y-13452484D01*
X11542253Y-13452484D02*
X11513682Y-13452484D01*
X11637492Y-13319150D02*
X11713682Y-13319150D01*
X11666063Y-13252484D02*
X11666063Y-13423912D01*
X11666063Y-13423912D02*
X11675587Y-13442960D01*
X11675587Y-13442960D02*
X11694634Y-13452484D01*
X11694634Y-13452484D02*
X11713682Y-13452484D01*
X11932730Y-13319150D02*
X11932730Y-13519150D01*
X11932730Y-13328674D02*
X11951777Y-13319150D01*
X11951777Y-13319150D02*
X11989873Y-13319150D01*
X11989873Y-13319150D02*
X12008920Y-13328674D01*
X12008920Y-13328674D02*
X12018444Y-13338198D01*
X12018444Y-13338198D02*
X12027968Y-13357246D01*
X12027968Y-13357246D02*
X12027968Y-13414388D01*
X12027968Y-13414388D02*
X12018444Y-13433436D01*
X12018444Y-13433436D02*
X12008920Y-13442960D01*
X12008920Y-13442960D02*
X11989873Y-13452484D01*
X11989873Y-13452484D02*
X11951777Y-13452484D01*
X11951777Y-13452484D02*
X11932730Y-13442960D01*
X12142253Y-13452484D02*
X12123206Y-13442960D01*
X12123206Y-13442960D02*
X12113682Y-13423912D01*
X12113682Y-13423912D02*
X12113682Y-13252484D01*
X12304158Y-13452484D02*
X12304158Y-13347722D01*
X12304158Y-13347722D02*
X12294634Y-13328674D01*
X12294634Y-13328674D02*
X12275587Y-13319150D01*
X12275587Y-13319150D02*
X12237492Y-13319150D01*
X12237492Y-13319150D02*
X12218444Y-13328674D01*
X12304158Y-13442960D02*
X12285111Y-13452484D01*
X12285111Y-13452484D02*
X12237492Y-13452484D01*
X12237492Y-13452484D02*
X12218444Y-13442960D01*
X12218444Y-13442960D02*
X12208920Y-13423912D01*
X12208920Y-13423912D02*
X12208920Y-13404865D01*
X12208920Y-13404865D02*
X12218444Y-13385817D01*
X12218444Y-13385817D02*
X12237492Y-13376293D01*
X12237492Y-13376293D02*
X12285111Y-13376293D01*
X12285111Y-13376293D02*
X12304158Y-13366769D01*
X12370825Y-13319150D02*
X12447015Y-13319150D01*
X12399396Y-13252484D02*
X12399396Y-13423912D01*
X12399396Y-13423912D02*
X12408920Y-13442960D01*
X12408920Y-13442960D02*
X12427968Y-13452484D01*
X12427968Y-13452484D02*
X12447015Y-13452484D01*
X12589873Y-13442960D02*
X12570825Y-13452484D01*
X12570825Y-13452484D02*
X12532730Y-13452484D01*
X12532730Y-13452484D02*
X12513682Y-13442960D01*
X12513682Y-13442960D02*
X12504158Y-13423912D01*
X12504158Y-13423912D02*
X12504158Y-13347722D01*
X12504158Y-13347722D02*
X12513682Y-13328674D01*
X12513682Y-13328674D02*
X12532730Y-13319150D01*
X12532730Y-13319150D02*
X12570825Y-13319150D01*
X12570825Y-13319150D02*
X12589873Y-13328674D01*
X12589873Y-13328674D02*
X12599396Y-13347722D01*
X12599396Y-13347722D02*
X12599396Y-13366769D01*
X12599396Y-13366769D02*
X12504158Y-13385817D01*
X12770825Y-13452484D02*
X12770825Y-13252484D01*
X12770825Y-13442960D02*
X12751777Y-13452484D01*
X12751777Y-13452484D02*
X12713682Y-13452484D01*
X12713682Y-13452484D02*
X12694634Y-13442960D01*
X12694634Y-13442960D02*
X12685111Y-13433436D01*
X12685111Y-13433436D02*
X12675587Y-13414388D01*
X12675587Y-13414388D02*
X12675587Y-13357246D01*
X12675587Y-13357246D02*
X12685111Y-13338198D01*
X12685111Y-13338198D02*
X12694634Y-13328674D01*
X12694634Y-13328674D02*
X12713682Y-13319150D01*
X12713682Y-13319150D02*
X12751777Y-13319150D01*
X12751777Y-13319150D02*
X12770825Y-13328674D01*
X12847015Y-13528674D02*
X12856539Y-13519150D01*
X12856539Y-13519150D02*
X12875587Y-13490579D01*
X12875587Y-13490579D02*
X12885111Y-13471531D01*
X12885111Y-13471531D02*
X12894634Y-13442960D01*
X12894634Y-13442960D02*
X12904158Y-13395341D01*
X12904158Y-13395341D02*
X12904158Y-13357246D01*
X12904158Y-13357246D02*
X12894634Y-13309627D01*
X12894634Y-13309627D02*
X12885111Y-13281055D01*
X12885111Y-13281055D02*
X12875587Y-13262008D01*
X12875587Y-13262008D02*
X12856539Y-13233436D01*
X12856539Y-13233436D02*
X12847015Y-13223912D01*
M02*
