M48
; DRILL file {KiCad 7.0.6-0} date 2023 December 23, Saturday 18:43:18
; FORMAT={-:-/ absolute / inch / decimal}
; #@! TF.CreationDate,2023-12-23T18:43:18-05:00
; #@! TF.GenerationSoftware,Kicad,Pcbnew,7.0.6-0
; #@! TF.FileFunction,Plated,1,2,PTH
FMAT,2
INCH
; #@! TA.AperFunction,Plated,PTH,ViaDrill
T1C0.0157
; #@! TA.AperFunction,Plated,PTH,ComponentDrill
T2C0.0276
; #@! TA.AperFunction,Plated,PTH,ComponentDrill
T3C0.0315
; #@! TA.AperFunction,Plated,PTH,ComponentDrill
T4C0.0402
; #@! TA.AperFunction,Plated,PTH,ComponentDrill
T5C0.0598
%
G90
G05
T1
X2.9Y-2.7
X4.0Y-4.5
X4.2Y-3.1
T2
X2.6Y-2.4
X2.6Y-2.5
X2.6Y-2.7
X2.6Y-2.8
X2.6Y-3.0
X2.6Y-3.1
X2.6Y-3.3
X2.6Y-3.4
T3
X4.5Y-2.3
X4.5Y-2.4496
T4
X3.2Y-2.4
X3.2Y-2.5
X3.2Y-2.6
X3.2Y-2.7
X3.2Y-2.8
X3.2Y-2.9
X3.2Y-3.0
X3.2Y-3.1
X3.2Y-3.2
X3.2Y-3.3
X3.2Y-3.4
X3.2Y-3.5
X3.2Y-3.6
X3.2Y-3.7
X3.2Y-3.8
X3.2Y-3.9
X3.2Y-4.0
X3.2Y-4.1
X3.2Y-4.2
X3.2Y-4.3
X3.45Y-4.2909
X3.55Y-4.2909
X3.65Y-4.2909
X3.9Y-2.4
X3.9Y-2.5
X3.9Y-2.6
X3.9Y-2.7
X3.9Y-2.8
X3.9Y-2.9
X3.9Y-3.0
X3.9Y-3.1
X3.9Y-3.2
X3.9Y-3.3
X3.9Y-3.4
X3.9Y-3.5
X3.9Y-3.6
X3.9Y-3.7
X3.9Y-3.8
X3.9Y-3.9
X3.9Y-4.0
X3.9Y-4.1
X3.9Y-4.2
X3.9Y-4.3
T5
X2.6Y-3.7
X2.6Y-3.9
X2.6Y-4.1
X3.0Y-2.1
X3.2Y-2.1
X3.9Y-2.1
X4.1Y-2.1
X4.5Y-2.8
X4.5Y-3.0
X4.5Y-3.3
X4.5Y-3.5
X4.5Y-3.8
X4.5Y-4.0
X4.5Y-4.3
X4.5Y-4.5
X4.5Y-4.7
T0
M30
