%TF.GenerationSoftware,KiCad,Pcbnew,7.0.6-0*%
%TF.CreationDate,2023-12-23T18:42:55-05:00*%
%TF.ProjectId,Cornhole Wiring,436f726e-686f-46c6-9520-576972696e67,rev?*%
%TF.SameCoordinates,Original*%
%TF.FileFunction,Soldermask,Top*%
%TF.FilePolarity,Negative*%
%FSLAX46Y46*%
G04 Gerber Fmt 4.6, Leading zero omitted, Abs format (unit mm)*
G04 Created by KiCad (PCBNEW 7.0.6-0) date 2023-12-23 18:42:55*
%MOMM*%
%LPD*%
G01*
G04 APERTURE LIST*
%ADD10C,3.000000*%
%ADD11R,3.000000X3.000000*%
%ADD12O,1.800000X1.800000*%
%ADD13O,1.500000X1.500000*%
%ADD14O,1.700000X1.700000*%
%ADD15R,3.500000X1.700000*%
%ADD16R,1.700000X1.700000*%
%ADD17R,1.700000X3.500000*%
%ADD18C,1.400000*%
%ADD19O,1.400000X1.400000*%
%ADD20C,1.600000*%
%ADD21R,1.600000X1.600000*%
G04 APERTURE END LIST*
D10*
%TO.C,J6*%
X114300000Y-109220000D03*
X114300000Y-114300000D03*
D11*
X114300000Y-119380000D03*
%TD*%
%TO.C,J1*%
X81280000Y-53340000D03*
D10*
X76200000Y-53340000D03*
%TD*%
D12*
%TO.C,U1*%
X87445000Y-61090000D03*
D13*
X87745000Y-64120000D03*
X92595000Y-64120000D03*
D12*
X92895000Y-61090000D03*
D14*
X81280000Y-60960000D03*
D15*
X80380000Y-60960000D03*
D14*
X81280000Y-63500000D03*
D15*
X80380000Y-63500000D03*
D16*
X81280000Y-66040000D03*
D15*
X80380000Y-66040000D03*
D14*
X81280000Y-68580000D03*
D15*
X80380000Y-68580000D03*
D14*
X81280000Y-71120000D03*
D15*
X80380000Y-71120000D03*
D14*
X81280000Y-73660000D03*
D15*
X80380000Y-73660000D03*
D14*
X81280000Y-76200000D03*
D15*
X80380000Y-76200000D03*
D16*
X81280000Y-78740000D03*
D15*
X80380000Y-78740000D03*
D14*
X81280000Y-81280000D03*
D15*
X80380000Y-81280000D03*
D14*
X81280000Y-83820000D03*
D15*
X80380000Y-83820000D03*
D14*
X81280000Y-86360000D03*
D15*
X80380000Y-86360000D03*
D14*
X81280000Y-88900000D03*
D15*
X80380000Y-88900000D03*
D16*
X81280000Y-91440000D03*
D15*
X80380000Y-91440000D03*
D14*
X81280000Y-93980000D03*
D15*
X80380000Y-93980000D03*
D14*
X81280000Y-96520000D03*
D15*
X80380000Y-96520000D03*
D14*
X81280000Y-99060000D03*
D15*
X80380000Y-99060000D03*
D14*
X81280000Y-101600000D03*
D15*
X80380000Y-101600000D03*
D16*
X81280000Y-104140000D03*
D15*
X80380000Y-104140000D03*
D14*
X81280000Y-106680000D03*
D15*
X80380000Y-106680000D03*
D14*
X81280000Y-109220000D03*
D15*
X80380000Y-109220000D03*
D14*
X99060000Y-109220000D03*
D15*
X99960000Y-109220000D03*
D14*
X99060000Y-106680000D03*
D15*
X99960000Y-106680000D03*
D16*
X99060000Y-104140000D03*
D15*
X99960000Y-104140000D03*
D14*
X99060000Y-101600000D03*
D15*
X99960000Y-101600000D03*
D14*
X99060000Y-99060000D03*
D15*
X99960000Y-99060000D03*
D14*
X99060000Y-96520000D03*
D15*
X99960000Y-96520000D03*
D14*
X99060000Y-93980000D03*
D15*
X99960000Y-93980000D03*
D16*
X99060000Y-91440000D03*
D15*
X99960000Y-91440000D03*
D14*
X99060000Y-88900000D03*
D15*
X99960000Y-88900000D03*
D14*
X99060000Y-86360000D03*
D15*
X99960000Y-86360000D03*
D14*
X99060000Y-83820000D03*
D15*
X99960000Y-83820000D03*
D14*
X99060000Y-81280000D03*
D15*
X99960000Y-81280000D03*
D16*
X99060000Y-78740000D03*
D15*
X99960000Y-78740000D03*
D14*
X99060000Y-76200000D03*
D15*
X99960000Y-76200000D03*
D14*
X99060000Y-73660000D03*
D15*
X99960000Y-73660000D03*
D14*
X99060000Y-71120000D03*
D15*
X99960000Y-71120000D03*
D14*
X99060000Y-68580000D03*
D15*
X99960000Y-68580000D03*
D16*
X99060000Y-66040000D03*
D15*
X99960000Y-66040000D03*
D14*
X99060000Y-63500000D03*
D15*
X99960000Y-63500000D03*
D14*
X99060000Y-60960000D03*
D15*
X99960000Y-60960000D03*
D14*
X87630000Y-108990000D03*
D17*
X87630000Y-109890000D03*
D16*
X90170000Y-108990000D03*
D17*
X90170000Y-109890000D03*
D14*
X92710000Y-108990000D03*
D17*
X92710000Y-109890000D03*
%TD*%
D18*
%TO.C,R4*%
X66040000Y-63500000D03*
D19*
X66040000Y-60960000D03*
%TD*%
D18*
%TO.C,R3*%
X66040000Y-86360000D03*
D19*
X66040000Y-83820000D03*
%TD*%
D18*
%TO.C,R2*%
X66040000Y-71120000D03*
D19*
X66040000Y-68580000D03*
%TD*%
D18*
%TO.C,R1*%
X66040000Y-78740000D03*
D19*
X66040000Y-76200000D03*
%TD*%
D10*
%TO.C,J7*%
X114300000Y-83820000D03*
D11*
X114300000Y-88900000D03*
%TD*%
D10*
%TO.C,J5*%
X99060000Y-53340000D03*
D11*
X104140000Y-53340000D03*
%TD*%
D10*
%TO.C,J4*%
X114300000Y-96520000D03*
D11*
X114300000Y-101600000D03*
%TD*%
%TO.C,J3*%
X114300000Y-76200000D03*
D10*
X114300000Y-71120000D03*
%TD*%
D11*
%TO.C,J2*%
X66040000Y-93980000D03*
D10*
X66040000Y-99060000D03*
X66040000Y-104140000D03*
%TD*%
D20*
%TO.C,C1*%
X114300000Y-58420000D03*
D21*
X114300000Y-62220000D03*
%TD*%
M02*
